<svg width="117.886" height="20.315" viewBox="0 0 31.191 5.375" xmlns="http://www.w3.org/2000/svg"><g fill="#114a69"><path d="M5.29.351a.378.351 0 01.378.352v2.812a.378.351 0 01-.377.351H1.668a.756.703 0 00-.534.206l-.756.703V.703A.378.351 0 01.756.35zM.757 0A.756.703 0 000 .703v4.496a.189.176 0 00.323.124L1.4 4.321a.378.351 0 01.267-.103h3.623a.756.703 0 00.755-.703V.703A.756.703 0 005.291 0z"/><path d="M1.89 2.109a.378.351 0 11-.756 0 .378.351 0 01.755 0zm1.511 0a.378.351 0 11-.756 0 .378.351 0 01.756 0zm1.512 0a.378.351 0 11-.756 0 .378.351 0 01.756 0z"/></g><path d="M10.7 1.462h-.598a1.274 1.273 0 00-.239-.354 1.151 1.15 0 00-.22-.179q-.3-.187-.718-.187a1.477 1.477 0 00-.458.07 1.324 1.324 0 00-.262.117q-.319.187-.5.53a1.543 1.542 0 00-.156.476 2.05 2.049 0 00-.026.33q0 .456.182.8.181.343.5.53t.72.187a1.594 1.593 0 00.343-.035 1.203 1.203 0 00.375-.149 1.166 1.166 0 00.422-.457 1.436 1.436 0 00.037-.073h.599q-.215.55-.682.849a1.892 1.892 0 01-.809.283 2.408 2.408 0 01-.285.016 1.96 1.96 0 01-.744-.14 1.871 1.871 0 01-.226-.11q-.437-.25-.69-.695a1.953 1.952 0 01-.247-.834 2.374 2.374 0 01-.006-.172 2.135 2.135 0 01.094-.642 1.9 1.9 0 01.159-.367q.253-.448.69-.7.437-.254.97-.254A2.19 2.19 0 019.52.38a1.82 1.819 0 01.5.225 1.717 1.717 0 01.653.789 2.119 2.119 0 01.028.068zm11.117 0h-.6a1.274 1.273 0 00-.237-.354 1.151 1.15 0 00-.221-.179q-.3-.187-.718-.187a1.477 1.477 0 00-.458.07 1.324 1.324 0 00-.262.117q-.319.187-.5.53a1.543 1.542 0 00-.156.476 2.05 2.049 0 00-.026.33q0 .456.182.8.181.343.5.53.32.187.72.187a1.594 1.593 0 00.343-.035 1.203 1.203 0 00.375-.149 1.166 1.166 0 00.422-.457 1.436 1.436 0 00.037-.073h.6q-.215.55-.683.849a1.892 1.892 0 01-.809.283 2.408 2.408 0 01-.285.016 1.96 1.96 0 01-.744-.14 1.871 1.871 0 01-.226-.11q-.437-.25-.69-.695a1.953 1.952 0 01-.247-.834 2.374 2.374 0 01-.006-.172 2.135 2.135 0 01.094-.642 1.9 1.9 0 01.159-.367q.253-.448.69-.7.437-.254.97-.254a2.19 2.19 0 01.596.078 1.82 1.819 0 01.498.225 1.717 1.717 0 01.654.789 2.119 2.119 0 01.028.068zm-7.675.946v1.775h-.494V2.48a1.444 1.443 0 00-.024-.267q-.049-.26-.202-.423a.744.744 0 00-.418-.222 1.084 1.084 0 00-.198-.017 1.024 1.024 0 00-.274.035.757.757 0 00-.355.213.792.792 0 00-.177.309q-.057.178-.057.41v1.666h-.5V.115h.5V1.6a.982.982 0 01.394-.35 1.166 1.166 0 01.016-.008 1.269 1.269 0 01.427-.118 1.552 1.552 0 01.158-.008 1.374 1.374 0 01.391.054 1.211 1.211 0 01.225.092q.275.145.432.437a1.257 1.257 0 01.122.345q.03.147.034.315a2.17 2.17 0 010 .049zm11.117 0v1.775h-.495V2.48a1.444 1.443 0 00-.023-.267q-.05-.26-.202-.423a.744.744 0 00-.42-.222 1.084 1.084 0 00-.196-.017 1.024 1.024 0 00-.274.035.757.757 0 00-.356.213.792.792 0 00-.177.309q-.056.178-.056.41v1.666h-.5V.115h.5V1.6a.982.982 0 01.393-.35 1.166 1.166 0 01.016-.008 1.269 1.269 0 01.427-.118 1.552 1.552 0 01.159-.008 1.374 1.374 0 01.39.054 1.211 1.211 0 01.225.092q.275.145.432.437a1.257 1.257 0 01.122.345q.03.147.034.315a2.17 2.17 0 010 .049zm3.183-.687v-.55h.506v3.012h-.506v-.56q-.149.264-.443.437a1.247 1.247 0 01-.472.16 1.594 1.594 0 01-.212.013 1.396 1.396 0 01-.547-.107 1.34 1.34 0 01-.179-.091 1.381 1.381 0 01-.496-.528 1.644 1.644 0 01-.015-.027 1.642 1.642 0 01-.174-.578 2.052 2.052 0 01-.013-.236q0-.462.187-.81.187-.35.514-.542a1.405 1.405 0 01.703-.192 1.66 1.66 0 01.025 0 1.548 1.548 0 01.348.037 1.2 1.2 0 01.34.133q.29.17.434.429zM17.71 1.583h-.786V3.36a.815.815 0 00.007.108q.018.136.087.202a.262.262 0 00.085.054q.079.032.2.036a1.086 1.086 0 00.039.001h.368v.423h-.45a1.452 1.452 0 01-.23-.017q-.25-.04-.397-.175-.156-.143-.196-.424a1.49 1.49 0 01-.013-.208V1.583h-.39v-.412h.39V.412h.5v.759h.786zm13.48 0h-.785V3.36a.815.815 0 00.006.108q.018.136.087.202a.262.262 0 00.085.054q.079.032.2.036a1.086 1.086 0 00.04.001h.368v.423h-.451a1.452 1.452 0 01-.23-.017q-.25-.04-.397-.175-.155-.143-.195-.424a1.49 1.49 0 01-.014-.208V1.583h-.39v-.412h.39V.412h.5v.759h.787zm-16.228-.412h.5v3.012h-.5zm13.48 1.5a1.426 1.426 0 00-.03-.3 1.092 1.091 0 00-.108-.293 1.007 1.007 0 00-.225-.284.938.938 0 00-.146-.104q-.233-.134-.514-.134a1.027 1.027 0 00-.415.084.996.996 0 00-.096.048.942.942 0 00-.337.33 1.145 1.145 0 00-.031.054 1.113 1.113 0 00-.118.351 1.473 1.472 0 00-.02.243 1.47 1.47 0 00.03.303 1.111 1.111 0 00.108.3 1.032 1.031 0 00.196.26.923.923 0 00.172.13q.23.134.511.134.28 0 .514-.135a.954.954 0 00.345-.343 1.153 1.153 0 00.026-.047q.138-.255.138-.596zM15.073.652a.34.34 0 00.147.03q.137 0 .234-.098.096-.1.096-.242 0-.143-.096-.242Q15.357 0 15.22 0a.41.41 0 00-.004 0 .328.328 0 00-.238.099.337.337 0 00-.068.095.34.34 0 00-.03.147.41.41 0 000 .004.328.328 0 00.098.238.337.337 0 00.095.067z" vector-effect="non-scaling-stroke" font-size="12" fill="#114a69" fill-rule="evenodd"/></svg>